<?xml version="1.0" encoding="UTF-8" standalone="no"?>
<!-- Created with Inkscape (http://www.inkscape.org/) -->

<svg
   width="450mm"
   height="200mm"
   viewBox="0 0 450 200"
   version="1.1"
   id="svg1"
   xml:space="preserve"
   inkscape:version="1.3.2 (091e20e, 2023-11-25)"
   sodipodi:docname="sample logo with text.svg"
   xmlns:inkscape="http://www.inkscape.org/namespaces/inkscape"
   xmlns:sodipodi="http://sodipodi.sourceforge.net/DTD/sodipodi-0.dtd"
   xmlns="http://www.w3.org/2000/svg"
   xmlns:svg="http://www.w3.org/2000/svg"><sodipodi:namedview
     id="namedview1"
     pagecolor="#ffffff"
     bordercolor="#000000"
     borderopacity="0.25"
     inkscape:showpageshadow="2"
     inkscape:pageopacity="0.0"
     inkscape:pagecheckerboard="0"
     inkscape:deskcolor="#d1d1d1"
     inkscape:document-units="mm"
     inkscape:zoom="0.24146155"
     inkscape:cx="648.13632"
     inkscape:cy="691.6215"
     inkscape:window-width="1440"
     inkscape:window-height="847"
     inkscape:window-x="0"
     inkscape:window-y="25"
     inkscape:window-maximized="1"
     inkscape:current-layer="layer2"
     showgrid="false" /><defs
     id="defs1"><rect
       x="283.00003"
       y="240.94781"
       width="289.38531"
       height="0"
       id="rect2" /><rect
       x="348.91971"
       y="207.98798"
       width="360.28519"
       height="168.20886"
       id="rect1" /></defs><g
     inkscape:groupmode="layer"
     id="layer2"
     inkscape:label="Layer 2"
     style="display:inline"><path
       id="path8"
       style="fill:#6b7280;stroke-width:0.573839;fill-opacity:1"
       d="m 45.473083,22.240403 a 7.9041292,9.3562171 0 0 0 -7.873016,8.839208 h -0.03165 v 0.517333 30.792414 0.09652 h 0.0062 a 7.9041292,9.3562171 0 0 0 7.898548,9.258779 7.9041292,9.3562171 0 0 0 7.897515,-9.258779 h 0.0058 v -0.09652 -30.792414 -0.517333 h -0.01329 a 7.9041292,9.3562171 0 0 0 -7.890396,-8.839208 z" /><path
       id="path8-7"
       style="display:inline;fill:#6b7280;stroke-width:0.573839;fill-opacity:1"
       d="m 114.97094,22.394855 a 7.9041292,9.3562171 0 0 0 -7.87302,8.839209 h -0.0316 v 0.51733 30.792417 0.09652 h 0.006 a 7.9041292,9.3562171 0 0 0 7.89855,9.258779 7.9041292,9.3562171 0 0 0 7.89751,-9.258779 h 0.006 v -0.09652 -30.792417 -0.51733 h -0.0133 a 7.9041292,9.3562171 0 0 0 -7.89121,-8.839209 z" /><rect
       style="fill:#6b7280;stroke-width:0.351352;fill-opacity:1"
       id="rect8"
       width="41.350555"
       height="43.669701"
       x="59.63356"
       y="24.961283" /><path
       style="fill:#6b7280;stroke-width:0.341896;fill-opacity:1"
       d="M 68.570667,74.422744 H 91.8548 l 0.118749,44.429916 -23.046539,18.29468 z"
       id="path9" /><path
       style="fill:#6b7280;stroke-width:0.328957;fill-opacity:1"
       d="m 63.63737,177.4888 c 0,0 -41.201571,4.56998 -40.70561,-41.12744 l 23.205259,0.0599 c 0,0 -2.016517,18.7563 17.4555,18.20208 z"
       id="path12"
       sodipodi:nodetypes="ccccc" /><path
       style="fill:#6b7280;stroke-width:0.188619;fill-opacity:1"
       d="m 69.01024,143.01481 23.112075,-18.62269 -0.327045,27.32069 c 0,0 -2.558701,21.28713 -22.857675,25.48816 z"
       id="path1"
       sodipodi:nodetypes="ccccc" /><text
       xml:space="preserve"
       transform="matrix(0.78408263,0,0,0.78408263,121.84602,175.96157)"
       id="text2"
       style="font-size:180.304px;letter-spacing:8.91976px;word-spacing:0px;white-space:pre;shape-inside:url(#rect2);shape-padding:8.03832;display:inline;fill:#6b7280;fill-opacity:1"><tspan
         x="0"
         y="0"
         id="tspan3"><tspan
           style="font-weight:bold;font-family:Avenir;-inkscape-font-specification:'Avenir Bold'"
           id="tspan1">URU </tspan></tspan></text></g></svg>
